Coordinates
nRows=10
nColumns=38

# SIMM Motion File Header:
name Coordinates
datacolumns 38
datarows 10
otherdata 1
range 1.17458000000000000000 1.18358000000000010000

Units are S.I. units (second, meters, Newtons, ...)
Angles are in degrees.

endheader
time	pelvis_tilt	pelvis_list	pelvis_rotation	pelvis_tx	pelvis_ty	pelvis_tz	hip_flexion_r	hip_adduction_r	hip_rotation_r	knee_angle_r	ankle_angle_r	subtalar_angle_r	mtp_angle_r	hip_flexion_l	hip_adduction_l	hip_rotation_l	knee_angle_l	ankle_angle_l	subtalar_angle_l	mtp_angle_l	lumbar_extension	lumbar_bending	lumbar_rotation	arm_flex_r	arm_add_r	arm_rot_r	elbow_flex_r	pro_sup_r	wrist_flex_r	wrist_dev_r	arm_flex_l	arm_add_l	arm_rot_l	elbow_flex_l	pro_sup_l	wrist_flex_l	wrist_dev_l
      1.17458000000000000000	     -0.73559855521303841000	     -0.47438820008695004000	     -2.52837369793797430000	      0.77348915614077673000	      1.01290717349920300000	     -0.35798729649070332000	    -14.74089464440999600000	     -0.86593578659309656000	      0.73933949282369227000	    -48.40270254478693300000	    -21.56880664680750600000	      0.00000000000004170806	     -0.00000000000004270759	     24.02513682824860600000	      2.14087465222906870000	     -2.86227654805636740000	    -16.46996523158344800000	      2.41938573550663480000	     -0.00000000000000066155	     -0.00000000000005380961	    -10.09534586567463800000	     -0.21621906040365116000	     10.73689650477119200000	     -8.06518061632397300000	    -34.73295836010606800000	     21.96927180917530000000	    128.63973863752403000000	     75.66996278415796000000	     -0.00000000000000430275	     -0.00000000000000664088	    -43.66004245348712900000	    -31.07264506520549200000	     -8.29061156498866230000	    136.78751806134684000000	     99.27136484666280600000	     -0.00000000000004348362	     -0.00000000000001423928
      1.17558000000000010000	     -0.67985856649184429000	     -0.48138973439819988000	     -2.46375750573072330000	      0.77356675428733745000	      1.01253709075916750000	     -0.35799199409583515000	    -14.59977844494875800000	     -0.85018070159667058000	      0.70206794285874696000	    -49.08164017789943800000	    -21.43315290076926900000	      0.00000000000004197196	     -0.00000000000004290403	     23.89176515680118100000	      2.15010124881015810000	     -2.84265249324130040000	    -16.34019488066763500000	      2.30507995625696390000	     -0.00000000000000068581	     -0.00000000000005405319	    -10.16239049275641400000	     -0.24643233440462750000	     10.61972649046351200000	     -8.11080035104357040000	    -34.71243521260619500000	     22.03577029787328100000	    128.61710369866756000000	     75.68708055554074600000	     -0.00000000000000433799	     -0.00000000000000668629	    -43.59766739845540700000	    -31.13827341373129400000	     -8.41217631059748960000	    136.83061054763189000000	     99.21926980517503100000	     -0.00000000000004372230	     -0.00000000000001431039
      1.17658000000000000000	     -0.62302850352539152000	     -0.48677203601263902000	     -2.39761259369608130000	      0.77364329317763458000	      1.01215845002124820000	     -0.35799832892332101000	    -14.45889519891556100000	     -0.83641287584728274000	      0.66099644439868654000	    -49.76042956701192600000	    -21.29944279740657400000	      0.00000000000004223507	     -0.00000000000004310077	     23.75973327356739200000	      2.16127671893329110000	     -2.82233879608538410000	    -16.22255484876803800000	      2.18454694149474270000	     -0.00000000000000070984	     -0.00000000000005429797	    -10.23048030951191500000	     -0.27834150213794989000	     10.50026376875426600000	     -8.15711786929297310000	    -34.69076117138418200000	     22.10092919622082200000	    128.59241251592394000000	     75.70287161291121000000	     -0.00000000000000437316	     -0.00000000000000673278	    -43.53325785648232900000	    -31.20573853809276300000	     -8.53326427031874960000	    136.87230547695245000000	     99.16483258268903000000	     -0.00000000000004396111	     -0.00000000000001438154
      1.17758000000000010000	     -0.56515237736028290000	     -0.49054784282335112000	     -2.32991999480372060000	      0.77371880503293922000	      1.01177123120056890000	     -0.35800643988356085000	    -14.31824369145017600000	     -0.82464595626326342000	      0.61613541326610988000	    -50.43894821927222700000	    -21.16779597609081200000	      0.00000000000004249687	     -0.00000000000004329708	     23.62913313126166400000	      2.17442926650382160000	     -2.80128248366644920000	    -16.11723676801257500000	      2.05816580940488960000	     -0.00000000000000073372	     -0.00000000000005454382	    -10.29956078465233000000	     -0.31189367245922012000	     10.37850199178660800000	     -8.20416120756591380000	    -34.66798390027349100000	     22.16474387155300400000	    128.56569200721677000000	     75.71738288948280600000	     -0.00000000000000440916	     -0.00000000000000677904	    -43.46685882087961500000	    -31.27503366464609900000	     -8.65386616197391410000	    136.91260841546159000000	     99.10789187738572500000	     -0.00000000000004419991	     -0.00000000000001445282
      1.17858000000000000000	     -0.50631125460906223000	     -0.49273916263626000000	     -2.26066784150853730000	      0.77379329431900390000	      1.01137536060108600000	     -0.35801646308852819000	    -14.17777266162344900000	     -0.81488254521639614000	      0.56751167348558140000	    -51.11709629690994200000	    -21.03830757784557200000	      0.00000000000004276032	     -0.00000000000004349386	     23.50010794324459300000	      2.18957623583057440000	     -2.77942795895635040000	    -16.02445657958105900000	      1.92638413427236750000	     -0.00000000000000075783	     -0.00000000000005479017	    -10.36954095062091400000	     -0.34702392405312660000	     10.25444163879297400000	     -8.25196297213842910000	    -34.64415451676667600000	     22.22720610472094900000	    128.53697064741229000000	     75.73067447166749800000	     -0.00000000000000444501	     -0.00000000000000682504	    -43.39851933532537500000	    -31.34614550908106200000	     -8.77397382179687390000	    136.95152500489172000000	     99.04828743779026500000	     -0.00000000000004443897	     -0.00000000000001452444
      1.17958000000000010000	     -0.44662791442304639000	     -0.49337660087082502000	     -2.18985196463698720000	      0.77386673605402800000	      1.01097070397276530000	     -0.35802853067889390000	    -14.03737487052337600000	     -0.80711519037904422000	      0.51516806742974841000	    -51.79479865357424000000	    -20.91104800327579800000	      0.00000000000004302335	     -0.00000000000004368998	     23.37285779789088000000	      2.20672440058901650000	     -2.75671796773306800000	    -15.94445488973791000000	      1.78971330334188680000	     -0.00000000000000078155	     -0.00000000000005503770	    -10.44028822340509600000	     -0.38365627684632436000	     10.12809053164359200000	     -8.30056137458302960000	    -34.61932684028164400000	     22.28830394655515300000	    128.50627796454296000000	     75.74281961935604100000	     -0.00000000000000448135	     -0.00000000000000687041	    -43.32829247705370800000	    -31.41905459010275700000	     -8.89357990606194450000	    136.98906031624190000000	     98.98586206838926700000	     -0.00000000000004467832	     -0.00000000000001459577
      1.18058000000000000000	     -0.38619623703198341000	     -0.49249274911337709000	     -2.11747820199613780000	      0.77393909310163722000	      1.01055717998987690000	     -0.35804276759204462000	    -13.89697349113613500000	     -0.80133812472761445000	      0.45916172873243483000	    -52.47198024258853600000	    -20.78607519061856500000	      0.00000000000004328622	     -0.00000000000004388514	     23.24754939184573000000	      2.22587886132337820000	     -2.73309921795406560000	    -15.87746997445498400000	      1.64871975433789910000	     -0.00000000000000080356	     -0.00000000000005528974	    -10.51170821580129900000	     -0.42171503885901118000	      9.99946518924201830000	     -8.34998470327173870000	    -34.59356096030289500000	     22.34802310771322800000	    128.47364719350162000000	     75.75389649663890200000	     -0.00000000000000451776	     -0.00000000000000691461	    -43.25622279713235900000	    -31.49373908039527600000	     -9.01267796941489690000	    137.02522292118780000000	     98.92045828327627500000	     -0.00000000000004491803	     -0.00000000000001466739
      1.18158000000000010000	     -0.32512373144699475000	     -0.49012424382368180000	     -2.04355923092469680000	      0.77401030510652047000	      1.01013469270296310000	     -0.35805929538161285000	    -13.75647033144683600000	     -0.79754219390035042000	      0.39956160807155305000	    -53.14858062016673300000	    -20.66342753714369000000	      0.00000000000004354786	     -0.00000000000004408060	     23.12437054016166400000	      2.24704008386199710000	     -2.70851852593956370000	    -15.82375238782690700000	      1.50401845641200160000	     -0.00000000000000082539	     -0.00000000000005554266	    -10.58369662404105100000	     -0.46112008098621277000	      9.86858810462059030000	     -8.40026091852695170000	    -34.56691997181557200000	     22.40634608194860900000	    128.43911328742459000000	     75.76399249391515400000	     -0.00000000000000455489	     -0.00000000000000695832	    -43.18235310283476000000	    -31.57017344231228200000	     -9.13126221502309750000	    137.06002207448213000000	     98.85192274631164400000	     -0.00000000000004515779	     -0.00000000000001473856
      1.18258000000000000000	     -0.26351910817310248000	     -0.48630892963013111000	     -1.96811280792906040000	      0.77408029160262026000	      1.00970315165031810000	     -0.35807823435192920000	    -13.61576142068887500000	     -0.79571852599909076000	      0.33644477599356859000	    -53.82454888092015500000	    -20.54312613808516400000	      0.00000000000004380925	     -0.00000000000004427679	     23.00351465823590800000	      2.27020784339861060000	     -2.68292274685329350000	    -15.78355921591437500000	      1.35626366753421010000	     -0.00000000000000084707	     -0.00000000000005579449	    -10.65615304965785400000	     -0.50179047638781493000	      9.73548570558821420000	     -8.45141523954018050000	    -34.53946971829299200000	     22.46325242014365000000	    128.40271316839650000000	     75.77320256349551600000	     -0.00000000000000459261	     -0.00000000000000700114	    -43.10672224852611800000	    -31.64832960333521000000	     -9.24932753503793490000	    137.09346839583915000000	     98.78010677185770300000	     -0.00000000000004539757	     -0.00000000000001481003
      1.18358000000000010000	     -0.20147787028267800000	     -0.48108293162915355000	     -1.89115918725800360000	      0.77414895560007069000	      1.00926249525140670000	     -0.35809970681063663000	    -13.47475510946907400000	     -0.79586206821729222000	      0.26989199019818227000	    -54.49983755320280900000	    -20.42517707786651500000	      0.00000000000004407169	     -0.00000000000004447320	     22.88516301281393300000	      2.29538547624001140000	     -2.65625791383207320000	    -15.75714775218395900000	      1.20613998988994500000	     -0.00000000000000086779	     -0.00000000000005604903	    -10.72899693006216600000	     -0.54364799935423025000	      9.60018553565336850000	     -8.50346748852094160000	    -34.51127855337387000000	     22.51871908184725900000	    128.36448618395067000000	     75.78162735798059700000	     -0.00000000000000463023	     -0.00000000000000704260	    -43.02936287600499600000	    -31.72817809319031200000	     -9.36686959264261350000	    137.12557473637565000000	     98.70486661327538500000	     -0.00000000000004563698	     -0.00000000000001488142
